<?xml version="1.0" encoding="utf-8"?>
<!-- Generator: Adobe Illustrator 23.0.1, SVG Export Plug-In . SVG Version: 6.00 Build 0)  -->
<svg version="1.1" id="Layer_1" xmlns="http://www.w3.org/2000/svg" xmlns:xlink="http://www.w3.org/1999/xlink" x="0px" y="0px"
	 viewBox="0 0 1280 1024" style="enable-background:new 0 0 1280 1024;" xml:space="preserve">
<style type="text/css">
	.st0{fill:none;}
	.st1{fill:#E80F76;}
	.st2{fill:#E84776;}
	.st3{fill:#FF3F95;}
</style>
<rect class="st0" width="1280" height="1024"/>
<path class="st1" d="M0,0h534.04c0,0-32.59,75.95,124.96,75.95s424.23,0,424.23,0S1318,73.42,1318,218.37s0,832.63,0,832.63H0V0z"/>
<path class="st2" d="M1404,382h59c97.75,0,177-79.25,177-177v-11c0-97.75-79.25-177-177-177h-59c-97.75,0-177,79.25-177,177v11
	C1227,302.75,1306.25,382,1404,382z"/>
<ellipse class="st3" cx="1060" cy="711.5" rx="62" ry="73.5"/>
<ellipse class="st3" cx="886" cy="653.5" rx="132" ry="141.5"/>
</svg>
